<?xml version="1.0" standalone="no"?><svg xmlns="http://www.w3.org/2000/svg" data-object-type="netgraph" class="netgraph" id="netgraph" style="width: 100%; height: 100%; position: absolute;"><defs xmlns="http://www.w3.org/1999/xhtml"><style type="text/css"><![CDATA[
.netgraph { font-family: "Helvetica Neue", Helvetica, Arial, sans-serif; }
.ensemble { stroke-width: 1; }
g.node rect { stroke-width: 1; }
g.net rect { stroke-width: 1; }
.netgraph g text { text-anchor: middle; dominant-baseline: text-before-edge; cursor: default !important; }
.netgraph g text:active { cursor: move; }
.netgraph path.conn { stroke: black; stroke-width: 2px; fill: none; }
.netgraph g.excitatory > .conn { stroke: rgb(52, 101, 164); }
.netgraph g.excitatory &gt; .marker { fill: rgb(52, 101, 164); }
.netgraph g.inhibitory &gt; .conn { stroke: rgb(192, 0, 0); }
.netgraph g.inhibitory &gt; .marker { fill: rgb(192, 0, 0); }
.netgraph g.modulatory &gt; .conn { stroke: rgb(142, 182, 39); stroke-dasharray: 1em; }
.netgraph g.modulatory &gt; .marker { fill: rgb(142, 182, 39); }
.minimap { border-radius: 10px / 60px; height: 100%; opacity: 0.85; width: 100%; }
.minimap path.conn { stroke: black; stroke-width: 1px; fill: none; }
rect.view { fill: rgb(217, 237, 247); stroke: rgb(204, 204, 204); }
.recur { stroke: black; stroke-width: 2px; fill: none; }
.netgraph g.passthrough ellipse { stroke-width: 0px; fill: black; }
.netgraph g.passthrough text { text-anchor: middle; dominant-baseline: text-before-edge; }
]]&gt;</style></defs><g/><g><g class="normal"><path class="conn" visibility="visible" d="M 77.21643835616439 189.469696969697 L 302.92602739726027 189.469696969697"/><path class="marker" d="M 10 0 L -5 -5 L -5 5 z" visibility="visible" transform="translate(190.07123287671232, 189.469696969697) rotate(0)"/></g><g class="normal"><path class="conn" visibility="visible" d="M 302.92602739726027 189.469696969697 A 118.79452054794527 77.06605437941056 0 0 1 540.5150684931508 189.469696969697"/><path class="marker" d="M 10 0 L -5 -5 L -5 5 z" visibility="visible" transform="translate(421.72054794520557, 112.40364259028644) rotate(0)"/></g><g class="normal"><path class="conn" visibility="visible" d="M 540.5150684931508 189.469696969697 A 118.79452054794527 77.06605437941056 180 0 1 302.92602739726027 189.469696969697"/><path class="marker" d="M 10 0 L -5 -5 L -5 5 z" visibility="visible" transform="translate(421.72054794520557, 266.53575134910756) rotate(180)"/></g><g class="normal"><path class="conn" visibility="visible" d="M 540.5150684931508 189.469696969697 A 118.79452054794513 77.06605437941056 0 0 1 778.1041095890411 189.469696969697"/><path class="marker" d="M 10 0 L -5 -5 L -5 5 z" visibility="visible" transform="translate(659.3095890410959, 112.40364259028644) rotate(0)"/></g><g class="normal"><path class="conn" visibility="visible" d="M 778.1041095890411 189.469696969697 A 118.79452054794513 77.06605437941056 180 0 1 540.5150684931508 189.469696969697"/><path class="marker" d="M 10 0 L -5 -5 L -5 5 z" visibility="visible" transform="translate(659.3095890410959, 266.53575134910756) rotate(180)"/></g></g><g><g class="ens" data-object-type="ensemble" transform="translate(302.92602739726027, 189.469696969697)"><text transform="translate(0, 59.397260273972606)">layer1</text><g class="ensemble" transform="scale(3.3369247344928428)" style="fill: rgb(204, 204, 204); stroke: rgb(131, 131, 131); stroke-width: 0.168358;"><circle cx="-12.407" cy="-7.231" r="4.843"/><circle cx="-1.064" cy="0.123" r="4.843"/><circle cx="3.7619999999999996" cy="12.81" r="4.843"/><circle cx="12.454" cy="-0.521" r="4.843"/><circle cx="-11.603" cy="8.663" r="4.843"/><circle cx="2.644" cy="-12.908" r="4.843"/></g><rect transform="translate(-57.61534246575343, -59.397260273972606)" width="115.23068493150686" height="118.79452054794521" style="fill: transparent;"/></g><g class="ens" data-object-type="ensemble" transform="translate(540.5150684931508, 189.469696969697)"><text transform="translate(0, 59.397260273972606)">layer2</text><g class="ensemble" transform="scale(3.3369247344928428)" style="fill: rgb(204, 204, 204); stroke: rgb(131, 131, 131); stroke-width: 0.168358;"><circle cx="-12.407" cy="-7.231" r="4.843"/><circle cx="-1.064" cy="0.123" r="4.843"/><circle cx="3.7619999999999996" cy="12.81" r="4.843"/><circle cx="12.454" cy="-0.521" r="4.843"/><circle cx="-11.603" cy="8.663" r="4.843"/><circle cx="2.644" cy="-12.908" r="4.843"/></g><rect transform="translate(-57.61534246575343, -59.397260273972606)" width="115.23068493150686" height="118.79452054794521" style="fill: transparent;"/></g><g class="ens" data-object-type="ensemble" transform="translate(778.1041095890411, 189.469696969697)"><text transform="translate(0, 59.397260273972606)">layer3</text><g class="ensemble" transform="scale(3.3369247344928428)" style="fill: rgb(204, 204, 204); stroke: rgb(131, 131, 131); stroke-width: 0.168358;"><circle cx="-12.407" cy="-7.231" r="4.843"/><circle cx="-1.064" cy="0.123" r="4.843"/><circle cx="3.7619999999999996" cy="12.81" r="4.843"/><circle cx="12.454" cy="-0.521" r="4.843"/><circle cx="-11.603" cy="8.663" r="4.843"/><circle cx="2.644" cy="-12.908" r="4.843"/></g><rect transform="translate(-57.61534246575343, -59.397260273972606)" width="115.23068493150686" height="118.79452054794521" style="fill: transparent;"/></g><g class="node" data-object-type="node" transform="translate(77.21643835616439, 189.469696969697)"><text transform="translate(0, 75.78787878787881)">input_signal</text><rect transform="translate(-47.51780821917808, -75.78787878787881)" width="95.03561643835616" height="151.57575757575762" rx="9.503561643835615" ry="9.503561643835615" style="fill: rgb(204, 204, 204); stroke: rgb(131, 131, 131);"/><rect transform="translate(-47.51780821917808, -75.78787878787881)" width="95.03561643835616" height="151.57575757575762" style="fill: transparent;"/></g><g class="node" data-object-type="node" transform="translate(433.6, 454.72727272727275)"><text transform="translate(0, 75.7878787878788)">input_keys</text><rect transform="translate(-266.83076923076925, -75.7878787878788)" width="533.6615384615385" height="151.5757575757576" rx="15.15757575757576" ry="15.15757575757576" style="fill: rgb(204, 204, 204); stroke: rgb(131, 131, 131);"/><rect transform="translate(-266.83076923076925, -75.7878787878788)" width="533.6615384615385" height="151.5757575757576" style="fill: transparent;"/></g></g></svg>