<?xml version="1.0" standalone="no"?><svg xmlns="http://www.w3.org/2000/svg" data-object-type="netgraph" class="netgraph" id="netgraph" style="width: 100%; height: 100%; position: absolute;"><defs xmlns="http://www.w3.org/1999/xhtml"><style type="text/css"><![CDATA[
.netgraph { font-family: "Helvetica Neue", Helvetica, Arial, sans-serif; }
.ensemble { stroke-width: 1; }
g.node rect { stroke-width: 1; }
g.net rect { stroke-width: 1; }
.netgraph g text { text-anchor: middle; dominant-baseline: text-before-edge; cursor: default !important; }
.netgraph g text:active { cursor: move; }
.netgraph path.conn { stroke: black; stroke-width: 2px; fill: none; }
.netgraph g.excitatory > .conn { stroke: rgb(52, 101, 164); }
.netgraph g.excitatory &gt; .marker { fill: rgb(52, 101, 164); }
.netgraph g.inhibitory &gt; .conn { stroke: rgb(192, 0, 0); }
.netgraph g.inhibitory &gt; .marker { fill: rgb(192, 0, 0); }
.netgraph g.modulatory &gt; .conn { stroke: rgb(142, 182, 39); stroke-dasharray: 1em; }
.netgraph g.modulatory &gt; .marker { fill: rgb(142, 182, 39); }
.minimap { border-radius: 10px / 60px; height: 100%; opacity: 0.85; width: 100%; }
.minimap path.conn { stroke: black; stroke-width: 1px; fill: none; }
rect.view { fill: rgb(217, 237, 247); stroke: rgb(204, 204, 204); }
.recur { stroke: black; stroke-width: 2px; fill: none; }
.netgraph g.passthrough ellipse { stroke-width: 0px; fill: black; }
.netgraph g.passthrough text { text-anchor: middle; dominant-baseline: text-before-edge; }
]]&gt;</style></defs><g/><g><g class="normal"><path class="conn" visibility="visible" d="M 80.4931506849315 172.01515151515156 L 315.78082191780817 172.01515151515156"/><path class="marker" d="M 10 0 L -5 -5 L -5 5 z" visibility="visible" transform="translate(198.13698630136983, 172.01515151515156) rotate(0)"/></g><g class="normal"><path class="conn" visibility="visible" d="M 315.78082191780817 172.01515151515156 A 123.8356164383562 73.96269198837693 0 0 1 563.4520547945206 172.01515151515156"/><path class="marker" d="M 10 0 L -5 -5 L -5 5 z" visibility="visible" transform="translate(439.6164383561644, 98.05245952677463) rotate(0)"/></g><g class="normal"><path class="conn" visibility="visible" d="M 563.4520547945206 172.01515151515156 A 123.8356164383562 73.96269198837693 180 0 1 315.78082191780817 172.01515151515156"/><path class="marker" d="M 10 0 L -5 -5 L -5 5 z" visibility="visible" transform="translate(439.6164383561644, 245.9778435035285) rotate(180)"/></g><g class="normal"><path class="conn" visibility="visible" d="M 563.4520547945206 172.01515151515156 A 123.83561643835611 73.96269198837693 0 0 1 811.1232876712328 172.01515151515156"/><path class="marker" d="M 10 0 L -5 -5 L -5 5 z" visibility="visible" transform="translate(687.2876712328766, 98.05245952677463) rotate(0)"/></g><g class="normal"><path class="conn" visibility="visible" d="M 811.1232876712328 172.01515151515156 A 123.83561643835611 73.96269198837693 180 0 1 563.4520547945206 172.01515151515156"/><path class="marker" d="M 10 0 L -5 -5 L -5 5 z" visibility="visible" transform="translate(687.2876712328766, 245.9778435035285) rotate(180)"/></g></g><g><g class="ens" data-object-type="ensemble" transform="translate(315.78082191780817, 172.01515151515156)"><text transform="translate(0, 61.91780821917808)">layer1</text><g class="ensemble" transform="scale(3.4785285516392173)" style="fill: rgb(204, 204, 204); stroke: rgb(131, 131, 131); stroke-width: 0.161504;"><circle cx="-12.407" cy="-7.231" r="4.843"/><circle cx="-1.064" cy="0.123" r="4.843"/><circle cx="3.7619999999999996" cy="12.81" r="4.843"/><circle cx="12.454" cy="-0.521" r="4.843"/><circle cx="-11.603" cy="8.663" r="4.843"/><circle cx="2.644" cy="-12.908" r="4.843"/></g><rect transform="translate(-60.06027397260274, -61.91780821917808)" width="120.12054794520547" height="123.83561643835615" style="fill: transparent;"/></g><g class="ens" data-object-type="ensemble" transform="translate(563.4520547945206, 172.01515151515156)"><text transform="translate(0, 61.91780821917808)">layer2</text><g class="ensemble" transform="scale(3.4785285516392173)" style="fill: rgb(204, 204, 204); stroke: rgb(131, 131, 131); stroke-width: 0.161504;"><circle cx="-12.407" cy="-7.231" r="4.843"/><circle cx="-1.064" cy="0.123" r="4.843"/><circle cx="3.7619999999999996" cy="12.81" r="4.843"/><circle cx="12.454" cy="-0.521" r="4.843"/><circle cx="-11.603" cy="8.663" r="4.843"/><circle cx="2.644" cy="-12.908" r="4.843"/></g><rect transform="translate(-60.06027397260274, -61.91780821917808)" width="120.12054794520547" height="123.83561643835615" style="fill: transparent;"/></g><g class="ens" data-object-type="ensemble" transform="translate(811.1232876712328, 172.01515151515156)"><text transform="translate(0, 61.91780821917808)">layer3</text><g class="ensemble" transform="scale(3.4785285516392173)" style="fill: rgb(204, 204, 204); stroke: rgb(131, 131, 131); stroke-width: 0.161504;"><circle cx="-12.407" cy="-7.231" r="4.843"/><circle cx="-1.064" cy="0.123" r="4.843"/><circle cx="3.7619999999999996" cy="12.81" r="4.843"/><circle cx="12.454" cy="-0.521" r="4.843"/><circle cx="-11.603" cy="8.663" r="4.843"/><circle cx="2.644" cy="-12.908" r="4.843"/></g><rect transform="translate(-60.06027397260274, -61.91780821917808)" width="120.12054794520547" height="123.83561643835615" style="fill: transparent;"/></g><g class="node" data-object-type="node" transform="translate(80.4931506849315, 172.01515151515156)"><text transform="translate(0, 68.80606060606063)">input_signal</text><rect transform="translate(-49.534246575342465, -68.80606060606063)" width="99.06849315068493" height="137.61212121212125" rx="9.906849315068493" ry="9.906849315068493" style="fill: rgb(204, 204, 204); stroke: rgb(131, 131, 131);"/><rect transform="translate(-49.534246575342465, -68.80606060606063)" width="99.06849315068493" height="137.61212121212125" style="fill: transparent;"/></g><g class="node" data-object-type="node" transform="translate(452, 412.8363636363636)"><text transform="translate(0, 68.80606060606061)">input_keys</text><rect transform="translate(-278.1538461538462, -68.80606060606061)" width="556.3076923076924" height="137.61212121212122" rx="13.761212121212123" ry="13.761212121212123" style="fill: rgb(204, 204, 204); stroke: rgb(131, 131, 131);"/><rect transform="translate(-278.1538461538462, -68.80606060606061)" width="556.3076923076924" height="137.61212121212122" style="fill: transparent;"/></g></g></svg>